<svg xmlns="http://www.w3.org/2000/svg" width="115" height="123 " viewBox="0 0 95 101">
    <g fill="none" fill-rule="evenodd">
        <path fill="#00274C" d="M.31 100.03h93.738V.388H.31z"/>
        <path fill="#FFFFFE" d="M0 100.34h94.358V.079H0v100.26zm.31-.31h93.738V.388H.31v99.642z"/>
        <path fill="#FFCB05" d="M47.42 53.63L33.778 34.84v13.666h5.456V62H14V48.506h5.115v-21.01H14V14h19.822l13.664 18.96L61.18 14H81v13.496h-5.115v21.01H81V62H55.767V48.506h5.455V34.84L47.419 53.63"/>
        <path fill="#FFFFFE" d="M62.596 82.615v.503c-.814.053-.814.292-.837 2.067v.702c-.7.45-1.698 1.1-3.465 1.1-3.096 0-4.576-2.438-4.576-4.889 0-2.993 1.95-4.94 4.394-4.94 1.537 0 2.421.596 3.155 1.06l.47-.557.069 2.927-.367.067a4.677 4.677 0 0 0-1.136-1.901c-.298-.305-.872-.695-1.778-.695-1.572 0-2.88 1.377-2.88 4.067 0 2.146 1.021 3.986 2.776 3.986.998 0 1.514-.729 1.56-.782.16-.251.197-.476.184-.888-.041-1.19-.196-1.217-1.194-1.324v-.503h3.625zm8.883 4.134v-.503c.74-.04 1.02-.053 1.122-.583.127-.624.165-6.173.178-7.14-.497-.475-.7-.569-1.3-.622v-.503h2.702c.752 1.113.918 1.363 2.243 3.072l2.51 3.232v-4.185c-.012-1.484-.05-1.563-1.477-1.616v-.503H81v.503c-.981.013-1.07.226-1.083 1.748l-.128 7.219h-.535l-.804-1.047c-.407-.53-.815-1.058-1.223-1.576l-3.556-4.559v4.851c0 1.51.102 1.563 1.479 1.709v.503h-3.67zm-49.666 0v-.503c1.134-.08 1.134-.132 1.147-1.867v-4.703l-3.148 7.192h-.79l-2.89-7.287-.068 5.5c0 .913.103 1.085 1.059 1.165v.503H14v-.503c.726-.04 1.007-.146 1.058-.782.025-.252.063-1.034.077-1.55l.127-3.92c.013-.305.013-.756.013-1.086 0-.927-.18-.994-.982-1.007v-.503h2.83l2.804 7.099 3.083-7.1h2.74v.557c-1.07.066-1.083.185-1.07 1.642v3.854c0 .637.013 1.43.051 1.908.051.69.306.821 1.02.888v.503h-3.938zm4.82 0v-.503c.88-.12 1.057-.225 1.07-1.207v-4.98c-.013-1.946-.013-2-1.07-2.158v-.503h3.736v.503c-1.058.106-1.058.159-1.058 2.159v3.775c0 .33.013 1.377.038 1.655.064.57.319.703 1.02.756v.503h-3.736zm23.088 0v-.503c.88-.12 1.06-.225 1.072-1.207v-4.98c-.013-1.946-.013-2-1.072-2.158v-.503h3.74v.503c-1.057.106-1.057.159-1.057 2.159v3.775c0 .33.013 1.377.039 1.655.063.57.318.703 1.018.756v.503h-3.74zm-10.257 0v-.503c1.019-.093 1.032-.319 1.032-1.219.012-.331.012-.663.012-.993v-3.921c0-.609 0-1.218-.038-1.51-.05-.555-.305-.636-1.006-.702v-.503h3.852v.503c-.753.08-1.032.106-1.122.622-.064.305-.077.994-.077 1.55v1.292c.778.04 1.32.066 2.072.066.764 0 1.37-.026 2.134-.066v-1.57c-.012-1.709-.025-1.775-1.249-1.894v-.503h3.903v.503c-1.046.132-1.046.147-1.046 1.92v3.948c0 .37.013 1.55.05 1.827.064.491.332.583.996.65v.503h-3.903v-.503c.906-.107 1.147-.132 1.224-.782.025-.265.025-.622.025-1.298V82.45c-.713-.026-1.306-.066-2.046-.066-.776 0-1.382.025-2.16.066v1.715c.013 1.948.039 1.948 1.199 2.08v.503h-3.852zm-.666-2.08C38.399 85.344 37.442 87 34.96 87c-2.712 0-4.468-2.079-4.468-4.808 0-2.53 1.49-5.02 4.529-5.02 1.598 0 2.446.703 2.966 1.126l.617-.583.049 2.834-.4.08c-.157-.543-.387-.98-.968-1.642-.279-.305-.944-.913-1.889-.913-1.622 0-2.906 1.376-2.906 3.8 0 2.054 1.054 3.988 3.136 3.988 1.574 0 2.164-.913 2.637-1.614l.535.421zm27.934-5.427l-1.323 3.876h2.585l-1.262-3.876zm.805 7.507v-.503c.612-.04 1.084-.093 1.084-.61 0-.185-.052-.384-.103-.556l-.27-.955h-3.173l-.278.809c-.064.199-.115.385-.115.583 0 .662.676.702 1.223.729v.503h-3.709v-.503c.944-.04 1.25-.24 1.594-1.219l2.434-6.94-.14-.226c1.045-.357 1.338-.516 1.784-.861.179.636.204.715.408 1.377l1.988 6.358c.357 1.127.523 1.404 1.479 1.51v.504h-4.206zM44.08 73.002c.008 1.306.008 1.482.724 1.497v.316H42.32v-.316c.641-.048.708-.145.717-.757.008-.234.008-.5.008-.733v-2.06c0-.686-.008-.928-.034-1.113-.042-.314-.202-.371-.69-.41v-.308l2.695.01c1.465 0 1.928.67 1.928 1.46 0 .548-.353 1.262-1.17 1.504l1.053 1.754c.379.67.581.824 1.061.887v.194c-.126.008-.252.017-.387.017-1.12 0-1.584-.372-2.056-1.331l-.329-.67c-.353-.718-.471-.673-1.036-.681v.74zm0-1.24c.16.031.388.055.557.055.676.003 1.188-.506 1.212-.961.036-.662-.311-1.233-1.407-1.233-.15 0-.243.008-.362.032v2.107zm-2.456 3.053c0-.411.076-1.09.127-1.476h-.287c-.202 1.016-.8.967-1.66.967-.792 0-.951-.202-.951-.573v-1.592h.64c.733 0 .943.06.943.698h.286v-1.88h-.286c-.058.508-.168.674-.936.674h-.647v-2.006h.732c1.01 0 1.374.073 1.508.847h.27l-.034-1.355h-4.237v.306c.429.041.614.066.674.331.042.178.05.807.05 1.032v2.003c0 .152-.008.838-.017.975-.017.622-.093.678-.707.734v.315h4.532zm21.587 0v-.307c.464-.048.64-.064.759-.177.135-.13.135-.274.143-.896v-1l-1.583-2.347c-.43-.613-.439-.629-1.012-.662v-.314h3.1v.314c-.623.017-.9.033-.9.307 0 .153.109.33.26.573l.91 1.426.842-1.418c.152-.282.237-.451.237-.581 0-.274-.245-.282-.658-.307v-.314h2.326v.314c-.599.017-.776.186-1.458 1.251l-.927 1.484v1.186c0 1.032.009 1.113.894 1.161v.307H63.21zM36.837 69.12v.305c-.572.082-.648.235-1.137 1.363l-1.81 4.14h-.322l-1.625-4.203c-.404-1.081-.456-1.21-1.053-1.3v-.305h2.822v.305c-.48.017-.792.033-.792.364 0 .16.042.298.202.774l1.036 2.895 1.213-2.992c.076-.201.177-.46.177-.604 0-.412-.42-.428-.792-.437v-.305h2.081zm-20.158 0v.305c-.792.057-.792.082-.8 1.292v1.338c0 .694.014 1.289.396 1.823.304.425.821.48 1.082.48.85 0 1.318-.424 1.52-1.093.17-.532.178-1.532.178-2.193 0-.21 0-.888-.009-1.073-.034-.517-.311-.533-.843-.574v-.305h2.267v.305c-.556-.007-.674.114-.708.678-.009.138-.076 1.72-.084 1.96-.017.435-.042.863-.143 1.275-.404 1.532-1.963 1.612-2.376 1.612-.329 0-1.002-.047-1.559-.402-.884-.573-.892-1.428-.892-2.348v-1.29c-.009-.613-.009-.887-.026-1.032-.05-.355-.235-.428-.682-.453v-.305h2.679zm40.405 5.694v-.242c.549-.008.7-.201.7-.654v-4.194h-.741c-.674 0-1.121-.025-1.171.991h-.312l.05-1.597h5.41l.05 1.597h-.312c-.05-1.016-.497-.991-1.171-.991h-.741v4.194c0 .453.15.646.699.654v.242h-2.46zM47.91 73.04l.303-.031c.33.926.878 1.426 1.772 1.426.633 0 1.19-.258 1.19-.871 0-.645-.65-.902-.937-1.016-.237-.088-.489-.161-.725-.25-.49-.169-1.41-.532-1.41-1.637 0-1.065.879-1.661 1.898-1.661.397 0 .861.08 1.367.386l.362-.25.194 1.694-.295.057c-.1-.371-.177-.544-.413-.843-.287-.355-.691-.52-1.164-.52-.632 0-1.003.29-1.003.742 0 .677.7.903 1.366 1.113.338.104.616.194.86.33.472.267.86.767.86 1.453 0 .983-.843 1.798-2.1 1.798-.81 0-1.307-.307-1.543-.452l-.496-.347-.086-1.121zm-26.99 1.775v-.307c.49-.024.675-.032.742-.355.084-.379.11-3.758.118-4.347-.328-.29-.463-.347-.86-.38v-.305h1.786c.498.677.608.83 1.484 1.87l1.66 1.969v-2.548c-.01-.904-.035-.953-.979-.986v-.305h2.343v.305c-.649.009-.707.138-.716 1.065l-.084 4.397h-.354l-.531-.637c-.27-.324-.54-.646-.809-.96l-2.35-2.777v2.954c0 .92.067.952.977 1.04v.307H20.92zm31.605 0v-.307c.581-.073.7-.136.708-.734v-3.032c-.008-1.187-.008-1.218-.708-1.316v-.305h2.469v.305c-.7.066-.7.098-.7 1.316v2.298c0 .202.01.84.026 1.01.042.346.211.426.674.458v.307h-2.47zm-24.67 0v-.307c.58-.073.699-.136.707-.734v-3.032c-.008-1.187-.008-1.218-.708-1.316v-.305h2.471v.305c-.699.066-.699.098-.699 1.316v2.298c0 .202.008.84.025 1.01.042.346.21.426.674.458v.307h-2.47zm48.69-.274v.314h2.462v-.314c-.614-.057-.69-.114-.707-.735l.004-1.625h.657c.665 0 1.019.061 1.062.698h.286v-1.88h-.286c-.034.614-.211.675-.936.675h-.783V69.7c.211-.024.33-.032.709-.032 1.162 0 1.537-.004 1.693.888H81l-.093-1.396h-4.363v.306c.43.04.615.065.673.33.043.178.051.807.051 1.033l-.001 2.001c0 .153-.008.839-.017.975-.016.62-.092.678-.707.735zm-3.26-.065c.336-.01.81-.17 1.177-.704.42-.618.506-1.186.483-1.927-.024-.734-.238-1.365-.675-1.812-.191-.196-.568-.484-1.064-.47-.496 0-.863.3-1.049.5-.423.46-.616 1.098-.616 1.832 0 .743.104 1.306.544 1.911.385.525.863.67 1.2.67zm2.97-2.477c0 1.969-1.4 3.001-2.977 3.001-1.729 0-3.082-1.194-3.082-3.009 0-1.556 1.089-2.96 3.002-2.952 1.8.009 3.058 1.234 3.058 2.96z"/>
    </g>
</svg>
