<svg width="383" height="61" viewBox="0 0 383 61" fill="none" xmlns="http://www.w3.org/2000/svg">
<path d="M118.883 37.5661V0.881442H129.75C134.676 0.881442 139.906 2.71144 139.906 11.3535C139.906 19.6894 133.406 21.4185 129.648 21.4185H123.555V37.5661H118.883ZM123.555 17.3514H128.633C130.562 17.3514 135.132 16.8435 135.132 11.0996C135.132 5.35436 130.969 4.94852 129.953 4.94852H123.555V17.3514ZM144.308 37.5661V0.881442H148.945V33.5164H162.485V37.5661H144.308ZM175.737 0.881442H181.678L193.61 37.5661H188.38L185.74 28.8057H171.573L168.831 37.5325H164.176L175.737 0.881442ZM178.58 5.20124H178.479L172.742 24.7735H184.488L178.58 5.20124ZM222.434 0.881442V37.5661H216.036L201.565 5.76144H201.412V37.5661H197.249V0.881442H203.849L218.119 32.279H218.337V0.881442H222.434ZM228.106 37.5661V0.881442H246.995V4.94852H232.777V16.8087H245.979V20.8757H232.777V33.5849H247.299V37.6333L228.106 37.5661ZM273.635 0.881442V4.94852H264.037V37.5661H259.367V4.94852H249.719V0.881442H273.635ZM285.11 37.5661V0.881442H297.043C302.12 0.881442 303.814 2.57575 305.217 4.64352C306.129 6.11212 306.637 7.79549 306.69 9.52352C306.69 14.0985 305.117 17.1485 300.394 18.2154V18.4694C305.624 19.0794 307.908 22.2314 307.908 27.2459C307.908 36.6511 301.054 37.5661 296.891 37.5661H285.11ZM289.782 16.3344H296.551C300.207 16.3344 301.986 14.0475 301.986 10.4896C302.057 9.73526 301.959 8.97451 301.7 8.26277C301.44 7.55104 301.025 6.90627 300.485 6.37548C299.945 5.84469 299.294 5.44126 298.578 5.19461C297.862 4.94797 297.101 4.86432 296.349 4.94977H289.748L289.782 16.3344ZM289.782 33.5164H296.382C297.687 33.634 298.995 33.336 300.121 32.6648C301.246 31.9937 302.131 30.9838 302.648 29.7793C302.991 28.9798 303.163 28.1172 303.153 27.2471C303.153 21.4185 299.548 20.4687 294.69 20.4687H289.715L289.782 33.5164ZM312.851 37.5661V0.881442H317.523V33.5164H330.978V37.5661H312.851ZM333.431 0.881442H338.103V24.3664C338.103 32.3985 340.54 34.4314 344.959 34.4314C349.376 34.4314 351.728 32.3985 351.728 24.3664V0.881442H356.4V24.1461C356.4 34.3132 352.642 38.3292 344.873 38.3292C337.105 38.3292 333.347 34.3132 333.347 24.1461L333.431 0.881442ZM361.97 37.5661V0.881442H380.825V4.94852H366.607V16.8087H379.809V20.8757H366.607V33.5849H381.13V37.6333L361.97 37.5661ZM100.014 0.864014H99.1672V59.5933H100.013L100.014 0.864014Z" fill="#FEFFFF"/>
<path d="M41.6699 49.3428L24.8825 26.3496V43.0735H31.5515V59.5933H0.661522V43.0735H6.92258V17.3664H0.660278V0.864014H24.9323L41.6699 24.0104L58.4112 0.864014H82.6832V17.3689H76.4209V43.0735H82.6832V59.5933H51.792V43.0735H58.4597V26.3483L41.6699 49.3416V49.3428Z" fill="#F3C300"/>
<path d="M348.108 59.5771V58.8987C348.954 58.8987 349.614 58.7804 349.614 58.0857C349.598 57.837 349.546 57.5918 349.461 57.3575L349.107 56.0864H344.722L344.333 57.1533C344.244 57.4044 344.192 57.6675 344.181 57.9339C344.181 58.814 345.112 58.8651 345.874 58.8987V59.5771H340.797V58.8987C342.1 58.8987 342.489 58.5937 342.996 57.289L346.381 48.0544L346.179 47.7494C347.065 47.5278 347.903 47.1428 348.649 46.614C348.887 47.4605 348.92 47.5626 349.208 48.444L351.95 56.9168C352.441 58.4082 352.678 58.7804 353.982 58.9161V59.5933L348.108 59.5771ZM347.008 49.5968L345.18 54.6797H348.751L347.008 49.5968ZM303.763 56.8147C303.259 57.7773 302.496 58.5786 301.559 59.127C300.622 59.6754 299.55 59.9487 298.465 59.9158C297.63 59.9362 296.8 59.7826 296.028 59.4648C295.255 59.147 294.557 58.6718 293.978 58.0695C293.399 57.4673 292.951 56.751 292.663 55.9662C292.375 55.1814 292.253 54.3452 292.305 53.5107C292.239 52.6531 292.352 51.7911 292.637 50.9796C292.922 50.168 293.373 49.4247 293.96 48.7968C294.547 48.1689 295.258 47.6702 296.049 47.3324C296.839 46.9945 297.691 46.8249 298.55 46.8344C300.056 46.8071 301.517 47.3454 302.646 48.3432L303.493 47.5639V51.3247L302.933 51.4442C302.687 50.6108 302.226 49.8569 301.596 49.2582C301.269 48.8906 300.871 48.593 300.426 48.3834C299.981 48.1737 299.499 48.0563 299.007 48.0382C296.755 48.0382 294.996 49.8682 294.996 53.1211C294.996 55.8487 296.451 58.4244 299.312 58.4244C300.063 58.4438 300.805 58.2506 301.452 57.867C302.099 57.4834 302.624 56.9249 302.968 56.2557L303.763 56.8147ZM305.845 59.5771V58.8987C307.267 58.7804 307.284 58.4754 307.284 57.289V50.8342C307.325 50.162 307.325 49.4897 307.284 48.8175C307.284 48.0892 306.86 47.9871 305.895 47.8851V47.2253H311.227V47.8851C310.178 48.0033 309.789 48.0382 309.67 48.7154C309.585 49.4001 309.551 50.0923 309.568 50.7819V52.4775C310.635 52.4775 311.396 52.5621 312.429 52.5621C313.462 52.5621 314.307 52.5621 315.374 52.4775V50.3251C315.374 48.0544 315.374 47.9697 313.681 47.8004V47.1406H319.064V47.8004C317.625 47.9871 317.625 48.0033 317.625 50.3587V58.0347C317.71 58.6957 318.081 58.814 318.995 58.8987V59.5771H313.614V58.8987C314.866 58.7642 315.205 58.7294 315.306 57.8654V53.883H309.501V56.1711C309.501 58.763 309.501 58.763 311.194 58.9335V59.6107L305.845 59.5771ZM321.179 59.5771V58.8987C322.398 58.7468 322.635 58.6111 322.651 57.3052V50.6811C322.651 48.0892 322.651 48.0207 321.179 47.8004V47.1406H326.342V47.8004C324.886 47.9535 324.886 48.0207 324.886 50.6811V57.9675C324.886 58.7294 325.326 58.8987 326.291 58.9671V59.6444L321.179 59.5771ZM285.788 59.5771V58.8987C287.006 58.7468 287.261 58.6111 287.277 57.3052V50.6811C287.277 48.0892 287.277 48.0207 285.788 47.8004V47.1406H290.866V47.8004C289.41 47.9535 289.41 48.0207 289.41 50.6811V57.9675C289.495 58.7294 289.85 58.8987 290.815 58.9671V59.6444L285.788 59.5771ZM277.968 59.5771V58.8987C279.525 58.7978 279.525 58.7294 279.56 56.4251V50.1732L275.209 59.729H274.194L270.2 50.0375V57.3575C270.2 58.5775 270.352 58.7978 271.673 58.8987V59.5771H267.356V58.8987C268.355 58.8987 268.744 58.7119 268.811 57.8654C268.811 57.5268 268.811 56.4935 268.913 55.7989L269.1 50.5952V49.1387C269.1 47.9187 268.846 47.834 267.746 47.8004V47.1406H271.655L275.514 56.5769L279.779 47.1406H283.554V47.8689C282.082 47.9697 282.065 48.1228 282.082 50.0537V57.6787C282.082 58.5937 282.505 58.763 283.486 58.8489V59.5261L277.968 59.5771ZM354.725 59.5771V58.8987C355.759 58.8987 356.13 58.8987 356.283 58.1194C356.435 57.3401 356.503 49.9192 356.52 48.6307C356.297 48.3721 356.022 48.1642 355.712 48.0209C355.403 47.8777 355.066 47.8025 354.725 47.8004V47.1406H358.467C359.499 48.6133 359.719 48.9532 361.563 51.2239L364.949 55.5275V49.9528C364.949 47.9859 364.949 47.8689 362.917 47.8004V47.1406H367.809V47.8004C366.455 47.8004 366.337 48.1054 366.32 50.1383L366.133 59.729H365.388L364.289 58.3397L362.597 56.2383L357.687 50.1894V56.628C357.687 58.6447 357.823 58.7132 359.735 58.8987V59.5771H354.725ZM251.108 53.3402C251.175 54.1911 251.062 55.0467 250.777 55.8513C250.492 56.6558 250.042 57.3913 249.454 58.0099C248.867 58.6285 248.156 59.1164 247.367 59.4417C246.579 59.7671 245.731 59.9226 244.879 59.8983C244.016 59.9225 243.158 59.768 242.358 59.4444C241.558 59.1209 240.833 58.6353 240.229 58.0181C239.625 57.401 239.155 56.6655 238.849 55.858C238.542 55.0504 238.405 54.1882 238.447 53.3253C238.4 52.4807 238.527 51.6354 238.823 50.8429C239.119 50.0504 239.576 49.3281 240.165 48.7216C240.753 48.1149 241.461 47.637 242.243 47.3179C243.025 46.9989 243.865 46.8457 244.71 46.868C245.564 46.8388 246.414 46.9868 247.208 47.3027C248.002 47.6186 248.722 48.0955 249.323 48.7035C249.924 49.3116 250.393 50.0375 250.7 50.8357C251.007 51.6338 251.146 52.4857 251.108 53.3402ZM244.896 58.7468C245.4 58.7103 245.887 58.5506 246.315 58.2817C246.743 58.0128 247.099 57.6428 247.351 57.2044C248.15 55.957 248.507 54.478 248.366 53.0028C248.391 51.5518 247.885 50.1417 246.944 49.0378C246.668 48.7201 246.328 48.465 245.945 48.2896C245.563 48.1142 245.148 48.0225 244.727 48.0207C244.308 48.0421 243.898 48.1493 243.523 48.3359C243.147 48.5224 242.814 48.7842 242.543 49.1051C241.643 50.2368 241.186 51.6585 241.258 53.1037C241.167 54.5853 241.565 56.0557 242.391 57.289C242.657 57.7185 243.025 58.076 243.462 58.3299C243.899 58.5839 244.391 58.7278 244.896 58.7468ZM252.344 58.8825V59.5771H257.421V58.8825C256.135 58.763 255.982 58.646 255.931 57.289V53.7311H257.303C258.69 53.7311 259.435 53.8668 259.52 55.2561H260.129V51.1554H259.52C259.52 52.4937 259.08 52.6294 257.574 52.6294H255.881V48.327C256.371 48.2847 256.864 48.2847 257.354 48.327C259.791 48.327 260.569 48.327 260.908 50.2591H261.517L261.314 47.2091H252.208V47.8689C253.105 47.971 253.494 48.022 253.613 48.5984C253.756 49.3366 253.846 50.0835 253.883 50.8355V57.3413C253.782 58.646 253.629 58.763 252.344 58.8825ZM145.577 59.5597V58.8837C146.796 58.7306 147.033 58.5949 147.05 57.2903V50.6649C147.05 48.073 147.05 48.0046 145.577 47.8016V47.1244H150.739V47.8016C149.267 47.9373 149.267 48.0046 149.267 50.6649V57.9513C149.369 58.7132 149.707 58.8825 150.689 58.9497V59.6282L145.577 59.5597ZM200.298 59.5597V58.8837C201.516 58.7306 201.753 58.5949 201.77 57.2903V50.6649C201.77 48.073 201.77 48.0046 200.298 47.8016V47.1244H205.375V47.8016C203.919 47.9373 203.919 48.0046 203.919 50.6649V57.9513C204.005 58.7132 204.359 58.8825 205.324 58.9497V59.6282L200.298 59.5597ZM130.446 59.5597V58.8837C131.461 58.8837 131.85 58.8837 132.003 58.1206C132.155 57.3587 132.223 49.903 132.239 48.6146C132.015 48.3593 131.74 48.1548 131.43 48.0146C131.121 47.8744 130.786 47.8018 130.446 47.8016V47.1244H134.169C135.219 48.5984 135.439 48.937 137.267 51.2077L140.652 55.5113V49.9366C140.652 47.971 140.652 47.8701 138.621 47.8016V47.1244H143.496V47.8016C142.142 47.8016 142.023 48.0905 142.006 50.1234L141.837 59.7141H141.092L139.992 58.3248L138.299 56.2234L133.391 50.1732V56.613C133.391 58.6298 133.527 58.697 135.439 58.8837V59.561H130.446V59.5597ZM190.024 55.6794H190.667C191.343 57.7135 192.495 58.7978 194.356 58.7978C195.677 58.7978 196.845 58.2376 196.845 56.8994C196.845 55.5611 195.49 54.9175 194.881 54.6797C194.272 54.4432 193.865 54.3237 193.375 54.1207C192.555 53.9422 191.818 53.4924 191.284 52.8439C190.749 52.1954 190.448 51.3858 190.429 50.5454C190.431 50.0402 190.536 49.5407 190.74 49.0785C190.944 48.6164 191.241 48.2015 191.613 47.8602C191.985 47.519 192.425 47.2591 192.903 47.0971C193.381 46.9351 193.887 46.8744 194.39 46.919C195.405 46.921 196.398 47.2149 197.251 47.7655L197.996 47.224L198.401 50.9189L197.792 51.0533C197.652 50.3789 197.357 49.7466 196.929 49.2071C196.644 48.8355 196.274 48.5382 195.849 48.3405C195.425 48.1429 194.959 48.0507 194.492 48.0718C193.171 48.0718 192.41 48.698 192.41 49.7661C192.41 51.2401 193.865 51.7318 195.254 52.1887C195.873 52.3692 196.474 52.607 197.047 52.9007C197.601 53.2259 198.058 53.692 198.373 54.2515C198.688 54.811 198.85 55.4441 198.842 56.0864C198.826 56.6374 198.698 57.1793 198.466 57.6791C198.235 58.179 197.903 58.6261 197.492 58.9933C197.082 59.3609 196.602 59.6413 196.08 59.8175C195.559 59.9936 195.007 60.0617 194.458 60.0178C193.309 60.0249 192.186 59.6757 191.243 59.0182L190.209 58.2712L190.024 55.6794ZM210.452 59.5597V59.0344C211.586 59.0344 211.908 58.5937 211.908 57.6114V48.444H210.368C208.964 48.444 208.032 48.444 207.914 50.6126H207.27L207.372 47.1232H218.662L218.763 50.6126H218.104C218.002 48.3768 217.07 48.444 215.666 48.444H214.126V57.6114C214.126 58.5949 214.448 59.0182 215.582 59.0344V59.5597H210.452ZM120.951 47.1232V47.8004C119.259 47.9187 119.259 47.9697 119.259 50.6139V53.5269C119.118 54.9509 119.439 56.3824 120.173 57.6102C120.437 57.9516 120.779 58.224 121.171 58.4041C121.563 58.5842 121.993 58.6668 122.423 58.6447C123.153 58.7014 123.878 58.4902 124.464 58.0506C125.05 57.611 125.455 56.973 125.605 56.2557C125.918 54.6834 126.042 53.08 125.977 51.4778V49.1225C125.977 48.0033 125.317 47.9697 124.286 47.8851V47.2078H129.008V47.8851C127.856 47.8851 127.602 48.1216 127.535 49.359C127.535 49.6478 127.382 53.1037 127.365 53.6464C127.349 54.5801 127.247 55.5101 127.06 56.4251C126.764 57.4936 126.109 58.4275 125.206 59.0694C124.303 59.7113 123.206 60.022 122.101 59.9494C120.957 59.9654 119.832 59.6605 118.852 59.0692C117.007 57.8144 116.974 55.9508 116.974 53.9851V48.9183C116.872 48.139 116.482 47.9871 115.552 47.9361V47.2589L120.951 47.1232ZM164.957 47.1232V47.8004C163.772 47.9697 163.603 48.3083 162.587 50.7657L158.796 59.7975H158.136L154.751 50.6301C153.905 48.2747 153.803 47.9871 152.551 47.8004V47.1232H158.458V47.8004C157.442 47.8004 156.765 47.8004 156.765 48.5797C156.816 49.1636 156.959 49.735 157.188 50.274L159.354 56.5944L161.876 50.0537C162.064 49.6391 162.188 49.1997 162.249 48.749C162.249 47.8514 161.369 47.8004 160.557 47.8004V47.1232H164.957ZM223.857 59.5597V58.8837C224.822 58.7816 225.195 58.7468 225.432 58.4941C225.669 58.2401 225.72 57.9003 225.736 56.5446V54.3598L222.436 49.2756C221.539 47.9373 221.522 47.9037 220.321 47.8353V47.1406H226.803V47.8353C225.5 47.8353 224.924 47.8353 224.924 48.4963C225.005 48.9507 225.19 49.3802 225.465 49.7499L227.378 52.851L229.071 49.7673C229.325 49.383 229.498 48.951 229.579 48.4975C229.579 47.9037 229.054 47.8875 228.191 47.8353V47.1406H233.048V47.8353C231.796 47.8353 231.356 48.2423 230.001 50.5641L228.073 53.8008V56.3927C228.073 58.646 228.073 58.8153 229.934 58.9173V59.5946L223.857 59.561V59.5597ZM175.603 59.5597C175.633 58.4829 175.722 57.4073 175.874 56.3404H175.265C174.842 58.5601 173.572 58.4418 171.795 58.4418C170.017 58.4418 169.815 58.0011 169.815 57.1882V53.7149H171.151C172.675 53.7149 173.115 53.8494 173.115 55.2387H173.724V51.138H173.115C172.997 52.2397 172.777 52.6132 171.169 52.6132H169.815V48.2237H171.338C173.453 48.2237 174.215 48.3768 174.503 50.0711H175.062V47.1232H166.21V47.783C167.106 47.8851 167.479 47.9361 167.615 48.5125C167.693 49.2609 167.727 50.0133 167.715 50.7657V57.2728C167.715 58.6285 167.513 58.7468 166.243 58.8663V59.5597H175.603ZM340.119 54.0697V54.7482C338.985 54.7482 338.985 55.1378 338.951 57.4932V58.4244C337.555 59.4062 335.885 59.922 334.179 59.8983C332.522 59.8163 330.958 59.1079 329.802 57.916C328.647 56.7242 327.986 55.1379 327.954 53.4773C327.921 51.8168 328.52 50.2059 329.628 48.9699C330.736 47.7338 332.271 46.9648 333.924 46.8182C335.483 46.8298 337.002 47.3208 338.274 48.2249L338.918 47.4954L339.018 51.3757L338.511 51.4778C338.197 50.5168 337.657 49.6451 336.937 48.9357C336.27 48.3216 335.389 47.9931 334.483 48.0207C332.316 48.0207 330.523 49.8507 330.523 53.4261C330.523 56.2894 331.927 58.7294 334.33 58.7294C334.748 58.7334 335.161 58.6407 335.537 58.4584C335.912 58.2761 336.241 58.0093 336.497 57.6787C336.72 57.3338 336.811 56.918 336.75 56.5097C336.75 54.9162 336.48 54.8166 335.058 54.8166V54.1382L340.119 54.0697ZM181.374 52.8833C181.76 52.963 182.15 53.0078 182.543 53.0203C183.146 53.0329 183.733 52.8271 184.196 52.4407C184.66 52.0544 184.968 51.5135 185.065 50.9176C185.065 49.4785 184.421 48.2237 182.136 48.2237C181.883 48.1949 181.627 48.1949 181.374 48.2237V52.8833ZM181.374 55.5947C181.374 58.4418 181.374 58.8314 182.881 58.8651V59.5597H177.718V58.8651C179.056 58.7642 179.192 58.5439 179.208 57.1707V51.0882C179.254 50.2753 179.254 49.4611 179.208 48.6482C179.123 47.9697 178.785 47.834 177.769 47.7494V47.0896H183.389C186.453 47.0896 187.418 48.5461 187.418 50.274C187.425 51.013 187.191 51.7341 186.751 52.3275C186.311 52.9209 185.689 53.3539 184.98 53.5605L187.18 57.3911C187.976 58.8476 188.399 59.1875 189.397 59.3232V59.7464H188.585C187.643 59.8443 186.696 59.6078 185.911 59.078C185.125 58.5483 184.55 57.7592 184.286 56.8483L183.609 55.3918C182.864 53.8157 182.628 53.9178 181.443 53.9004L181.374 55.5947Z" fill="#FEFFFF"/>
</svg>
